<?xml version="1.0" encoding="utf-8"?>
<!-- Generator: Adobe Illustrator 16.0.1, SVG Export Plug-In . SVG Version: 6.00 Build 0)  -->
<!DOCTYPE svg PUBLIC "-//W3C//DTD SVG 1.1//EN" "http://www.w3.org/Graphics/SVG/1.1/DTD/svg11.dtd">
<svg version="1.1" id="Calque_1" xmlns="http://www.w3.org/2000/svg" xmlns:xlink="http://www.w3.org/1999/xlink" x="0px" y="0px"
	 width="32px" height="32px" viewBox="0 0 32 32" style="enable-background:new 0 0 32 32;" xml:space="preserve">
<style type="text/css">
<![CDATA[
	.st0{fill-rule:evenodd;clip-rule:evenodd;fill:#9FA1A3;}
]]>
</style>
<path class="st0" d="M15.9,0.3C7.1,0.3,0,7.6,0,16.5C0,23.7,4.6,29.8,10.9,32c0.8,0.1,1.1-0.4,1.1-0.8c0-0.4,0-1.4,0-2.8
	c-4.4,1-5.4-2.2-5.4-2.2c-0.7-1.9-1.8-2.4-1.8-2.4c-1.4-1,0.1-1,0.1-1c1.6,0.1,2.4,1.7,2.4,1.7c1.4,2.5,3.7,1.8,4.6,1.4
	c0.1-1.1,0.6-1.8,1-2.2c-3.5-0.4-7.3-1.8-7.3-8c0-1.8,0.6-3.2,1.6-4.4C7.2,10.9,6.7,9.3,7.6,7c0,0,1.3-0.4,4.4,1.7
	c1.3-0.4,2.6-0.5,4-0.5c1.4,0,2.7,0.2,4,0.5C23,6.6,24.3,7,24.3,7c0.9,2.2,0.3,3.9,0.2,4.3c1,1.1,1.6,2.6,1.6,4.4
	c0,6.2-3.7,7.6-7.3,8c0.6,0.5,1.1,1.5,1.1,3c0,2.2,0,3.9,0,4.5c0,0.4,0.3,0.9,1.1,0.8c6.3-2.2,10.9-8.2,10.9-15.4
	C31.9,7.6,24.7,0.3,15.9,0.3z"/>
</svg>
