<?xml version="1.0" encoding="utf-8"?>
<!-- Generator: Adobe Illustrator 16.0.1, SVG Export Plug-In . SVG Version: 6.00 Build 0)  -->
<!DOCTYPE svg PUBLIC "-//W3C//DTD SVG 1.1//EN" "http://www.w3.org/Graphics/SVG/1.1/DTD/svg11.dtd">
<svg version="1.1" xmlns="http://www.w3.org/2000/svg" xmlns:xlink="http://www.w3.org/1999/xlink" x="0px" y="0px" width="32px"
	 height="32px" viewBox="0 0 32 32" style="enable-background:new 0 0 32 32;" xml:space="preserve">
<style type="text/css">
<![CDATA[
	.st0{filter:url(#Adobe_OpacityMaskFilter);}
	.st1{mask:url(#SVGID_1_);fill:#9FA1A3;}
]]>
</style>
<g id="Calque_1">
</g>
<g id="Calque_2">
	<defs>
		<filter id="Adobe_OpacityMaskFilter" filterUnits="userSpaceOnUse" x="0" y="0.7" width="31.6" height="31.3">
			
				<feColorMatrix  type="matrix" values="-1 0 0 0 1  0 -1 0 0 1  0 0 -1 0 1  0 0 0 1 0" color-interpolation-filters="sRGB" result="source"/>
			<feFlood  style="flood-color:white;flood-opacity:1" result="back"/>
			<feBlend  in="source" in2="back" mode="normal"/>
		</filter>
	</defs>
	<mask maskUnits="userSpaceOnUse" x="0" y="0.7" width="31.6" height="31.3" id="SVGID_1_">
		<g class="st0">
		</g>
	</mask>
	<path class="st1" d="M15.8,0.7c8.7,0,15.8,7,15.8,15.6C31.6,25,24.5,32,15.8,32C7.1,32,0,25,0,16.4C0,7.7,7.1,0.7,15.8,0.7z
		 M27.8,10.6c-0.8,0.3-1.6,0.6-2.5,0.7c0.9-0.5,1.6-1.4,1.9-2.4c-0.8,0.5-1.8,0.9-2.8,1.1c-0.8-0.8-1.9-1.4-3.2-1.4
		c-2.4,0-4.4,1.9-4.4,4.3c0,0.3,0,0.7,0.1,1c-3.7-0.2-6.9-1.9-9.1-4.5c-0.4,0.6-0.6,1.4-0.6,2.2c0,1.5,0.8,2.8,2,3.6
		c-0.7,0-1.4-0.2-2-0.5c0,0,0,0,0,0.1c0,2.1,1.5,3.9,3.5,4.3c-0.4,0.1-0.8,0.2-1.2,0.2c-0.3,0-0.6,0-0.8-0.1c0.6,1.7,2.2,3,4.1,3
		c-1.5,1.2-3.4,1.9-5.5,1.9c-0.4,0-0.7,0-1-0.1c1.9,1.2,4.3,2,6.7,2c8.1,0,12.5-6.6,12.5-12.4c0-0.2,0-0.4,0-0.6
		C26.5,12.2,27.2,11.4,27.8,10.6z"/>
</g>
</svg>
