<?xml version="1.0" encoding="utf-8"?>
<!-- Generator: Adobe Illustrator 16.0.1, SVG Export Plug-In . SVG Version: 6.00 Build 0)  -->
<!DOCTYPE svg PUBLIC "-//W3C//DTD SVG 1.1//EN" "http://www.w3.org/Graphics/SVG/1.1/DTD/svg11.dtd">
<svg version="1.1" id="Calque_1" xmlns="http://www.w3.org/2000/svg" xmlns:xlink="http://www.w3.org/1999/xlink" x="0px" y="0px"
	 width="32px" height="32px" viewBox="0 0 32 32" style="enable-background:new 0 0 32 32;" xml:space="preserve">
<style type="text/css">
<![CDATA[
	.st0{fill:#9FA1A3;}
]]>
</style>
<g>
	<path class="st0" d="M16.7,14.8L16.7,14.8C16.6,14.8,16.6,14.8,16.7,14.8L16.7,14.8z"/>
	<path class="st0" d="M15.8,0.4C7.1,0.4,0,7.5,0,16.2C0,24.9,7,32,15.8,32c8.8,0,15.8-7.1,15.8-15.8C31.6,7.5,24.6,0.4,15.8,0.4z
		 M11.5,23.1H8.4v-9.4h3.1V23.1z M10,12.4L10,12.4c-1.1,0-1.8-0.7-1.8-1.6c0-0.9,0.7-1.6,1.8-1.6s1.7,0.7,1.8,1.6
		C11.7,11.7,11,12.4,10,12.4z M22.9,23.1h-3.2v-5c0-1.3-0.5-2.1-1.6-2.1c-0.9,0-1.4,0.6-1.6,1.1c-0.1,0.2-0.1,0.5-0.1,0.8v5.3h-3.2
		c0,0,0-8.5,0-9.4h3.1V15c0.4-0.6,1.2-1.6,2.8-1.6c2.1,0,3.6,1.3,3.6,4.2V23.1L22.9,23.1z"/>
</g>
</svg>
